<svg id="back-btn" xmlns="http://www.w3.org/2000/svg" width="39.357" height="32.744" viewBox="0 0 39.357 32.744">
  <path id="Path_699" data-name="Path 699" d="M.63,17.9,14.843,32.116a2.16,2.16,0,0,0,3.046,0l1.29-1.291a2.138,2.138,0,0,0,.629-1.523,2.18,2.18,0,0,0-.629-1.541l-8.292-8.31H37.231a2.1,2.1,0,0,0,2.126-2.118V15.508A2.183,2.183,0,0,0,37.231,13.3H10.794l8.385-8.36a2.133,2.133,0,0,0,0-3.025L17.889.628a2.161,2.161,0,0,0-3.046,0L.629,14.845a2.172,2.172,0,0,0,0,3.057Z" transform="translate(0 0)" fill="#44318d"/>
</svg>
