<svg xmlns="http://www.w3.org/2000/svg" width="11.825" height="10.953" viewBox="0 0 11.825 10.953">
  <g id="breadcrum-arrow" transform="translate(-0.448 -0.44)" opacity="0.5">
    <g id="Icon" transform="translate(0 0.417)">
      <path id="Icon-Path" d="M5.954.76,6.5.2a.578.578,0,0,1,.832,0L12.1,5.074a.608.608,0,0,1,0,.85L7.331,10.8a.578.578,0,0,1-.832,0l-.545-.556a.611.611,0,0,1,.01-.86L8.922,6.5H1.037a.594.594,0,0,1-.589-.6V5.1a.594.594,0,0,1,.589-.6H8.922L5.963,1.62A.607.607,0,0,1,5.954.76Z" fill="#fff"/>
    </g>
  </g>
</svg>
