<svg id="cross" xmlns="http://www.w3.org/2000/svg" width="34.128" height="33.735" viewBox="0 0 34.128 33.735">
  <path id="Path_37867" data-name="Path 37867" d="M3.236,36.122a3.233,3.233,0,0,1-2.3-.776,3.233,3.233,0,0,1,0-4.558L28.385,3.343a3.233,3.233,0,0,1,4.72,4.4L5.5,35.346a3.233,3.233,0,0,1-2.263.776Z" transform="translate(-0.001 -2.404)"/>
  <path id="Path_37868" data-name="Path 37868" d="M32.013,35.562a3.233,3.233,0,0,1-2.263-.937L2.306,7.179A3.233,3.233,0,0,1,6.863,2.621L34.47,30.066a3.233,3.233,0,0,1,.151,4.569q-.073.078-.151.151a3.233,3.233,0,0,1-2.457.776Z" transform="translate(-1.366 -1.844)"/>
</svg>
