<svg id="cta-arrow-white" xmlns="http://www.w3.org/2000/svg" width="25" height="25" viewBox="0 0 25 25">
  <g id="Group-3-Copy-5">
    <rect id="Rectangle" width="24" height="24" rx="12" stroke-width="1" fill="none" stroke="#fff" transform="translate(0.5 0.5)"/>
    <g id="fa-solid:arrow-right-copy-16" transform="translate(6 7)">
      <g id="Icon" transform="translate(0 0.417)">
        <path id="Icon-Path" d="M5.954.76,6.5.2a.578.578,0,0,1,.832,0L12.1,5.074a.608.608,0,0,1,0,.85L7.331,10.8a.578.578,0,0,1-.832,0l-.545-.556a.611.611,0,0,1,.01-.86L8.922,6.5H1.037a.594.594,0,0,1-.589-.6V5.1a.594.594,0,0,1,.589-.6H8.922L5.963,1.62A.607.607,0,0,1,5.954.76Z" fill="#fff"/>
      </g>
    </g>
  </g>
</svg>
