<?xml version="1.0" encoding="UTF-8"?>
<svg width="25px" height="25px" viewBox="0 0 25 25" version="1.1" xmlns="http://www.w3.org/2000/svg" xmlns:xlink="http://www.w3.org/1999/xlink">
    <title>cta-arrow</title>
    <g id="cta-arrow" stroke="none" stroke-width="1" fill="none" fill-rule="evenodd">
        <g id="Group-3-Copy-5">
            <rect id="Rectangle" stroke="#44318D" x="0.5" y="0.5" width="24" height="24" rx="12"></rect>
            <g id="fa-solid:arrow-right-copy-16" transform="translate(12.500000, 13.000000) rotate(-360.000000) translate(-12.500000, -13.000000) translate(6.000000, 7.000000)" fill="#44318D" fill-rule="nonzero">
                <g id="Icon" transform="translate(0.000000, 0.416667)">
                    <path d="M5.9535763,0.760188802 L6.49866558,0.20374349 C6.72946916,-0.0318684896 7.10268344,-0.0318684896 7.33103166,0.20374349 L12.1042459,5.07389323 C12.3350495,5.30950521 12.3350495,5.69049479 12.1042459,5.92360026 L7.33103166,10.7962565 C7.10022808,11.0318685 6.7270138,11.0318685 6.49866558,10.7962565 L5.9535763,10.2398112 C5.72031737,10.0016927 5.72522808,9.61318359 5.96339773,9.38007812 L8.92210308,6.50260417 L1.03731654,6.50260417 C0.710754041,6.50260417 0.448030826,6.23440755 0.448030826,5.90104167 L0.448030826,5.09895833 C0.448030826,4.76559245 0.710754041,4.49739583 1.03731654,4.49739583 L8.92210308,4.49739583 L5.96339773,1.61992187 C5.72277273,1.38681641 5.71786201,0.998307292 5.9535763,0.760188802 Z" id="Icon-Path"></path>
                </g>
            </g>
        </g>
    </g>
</svg>