<svg width="21" height="20" viewBox="0 0 21 20" fill="none" xmlns="http://www.w3.org/2000/svg">
<path d="M20.954 10.0001C20.954 4.48622 16.4542 0.000364304 10.9233 0.000364304C5.39244 0.000364304 0.892639 4.48622 0.892639 10.0001C0.892639 15.5141 5.39244 20 10.9233 20C16.4542 20 20.954 15.5141 20.954 10.0001ZM2.26576 10.0001C2.26576 5.24104 6.14949 1.36929 10.9233 1.36919C15.6971 1.36919 19.5808 5.24095 19.5809 10.0001C19.5808 14.7592 15.6971 18.631 10.9232 18.631C6.14958 18.631 2.26576 14.7592 2.26576 10.0001Z" fill="#44318D"/>
<path d="M15.2198 11.3431C15.4878 11.0758 15.4877 10.6424 15.2198 10.3751C14.9515 10.1077 14.5169 10.1077 14.2486 10.3752L11.6104 13.0055L11.6097 5.38879C11.6096 5.01077 11.3023 4.70439 10.9229 4.70439C10.5437 4.70449 10.2365 5.01086 10.2365 5.38888L10.2372 13.0058L7.59847 10.375C7.33034 10.1076 6.8955 10.1076 6.62745 10.375C6.49343 10.5087 6.42633 10.6838 6.42633 10.859C6.42633 11.0342 6.49343 11.2093 6.62736 11.343L10.4382 15.1423C10.5669 15.2707 10.7415 15.3428 10.9237 15.3428C11.1058 15.3427 11.2803 15.2706 11.4093 15.1422L15.2198 11.3431Z" fill="#44318D"/>
</svg>
