<svg xmlns="http://www.w3.org/2000/svg" width="150.978" height="150.968" viewBox="0 0 150.978 150.968">
  <g id="close" transform="translate(0 -0.016)">
    <g id="Group_494" data-name="Group 494" transform="translate(0 0.016)">
      <path id="Path_2022" data-name="Path 2022" d="M92.117,75.5l56.448-56.451a8.272,8.272,0,0,0,0-11.677l-4.947-4.945a8.278,8.278,0,0,0-11.679,0L75.491,58.874,19.04,2.427a8.274,8.274,0,0,0-11.676,0L2.416,7.372a8.263,8.263,0,0,0,0,11.677L58.865,75.5,2.416,131.948a8.281,8.281,0,0,0,0,11.679l4.948,4.945a8.274,8.274,0,0,0,11.676,0L75.49,92.125l56.448,56.448a8.193,8.193,0,0,0,5.838,2.411h0a8.193,8.193,0,0,0,5.839-2.411l4.947-4.945a8.28,8.28,0,0,0,0-11.678Z" transform="translate(0 -0.016)" fill="#fff"/>
    </g>
  </g>
</svg>
