<?xml version="1.0" encoding="UTF-8"?>
<svg width="24px" height="24px" viewBox="0 0 24 24" version="1.1" xmlns="http://www.w3.org/2000/svg" xmlns:xlink="http://www.w3.org/1999/xlink">
    <title>Search</title>
    <g id="Search" stroke="none" stroke-width="1" fill="none" fill-rule="evenodd">
        <g id="jam-search-copy" fill-rule="nonzero">
            <g id="Icon" transform="translate(2.000000, 2.000000)" fill="#B9B9B9">
                <path d="M8.5,14.5 C11.8137085,14.5 14.5,11.8137085 14.5,8.5 C14.5,5.1862915 11.8137085,2.5 8.5,2.5 C5.1862915,2.5 2.5,5.1862915 2.5,8.5 C2.5,11.8137085 5.1862915,14.5 8.5,14.5 Z M14.82,13.406 L18.4,16.986 C18.6597729,17.2372596 18.7637612,17.6091337 18.6719978,17.9586946 C18.5802343,18.3082554 18.3069992,18.5811043 17.9573089,18.6723733 C17.6076186,18.7636423 17.2358919,18.659128 16.985,18.399 L13.405,14.819 C10.0684784,17.4089685 5.29334847,16.9588682 2.49955081,13.7910602 C-0.294246856,10.6232521 -0.144016896,5.82930933 2.84264622,2.84264622 C5.82930933,-0.144016896 10.6232521,-0.294246856 13.7910602,2.49955081 C16.9588682,5.29334847 17.4089685,10.0684784 14.819,13.405 L14.82,13.406 Z" id="Icon-Shape"></path>
            </g>
            <rect id="ViewBox" x="0" y="0" width="24" height="24"></rect>
        </g>
    </g>
</svg>