<svg width="203" height="203" viewBox="0 0 203 203" fill="none" xmlns="http://www.w3.org/2000/svg">
<path d="M181.065 203H21.9352C9.82093 203 0 193.179 0 181.065V21.9352C0 9.82093 9.82093 0 21.9352 0H181.064C193.179 0 203 9.82093 203 21.9352V181.064C203 193.179 193.179 203 181.065 203Z" fill="#44318D"/>
<path d="M181.065 203H21.9352C9.82093 203 0 193.179 0 181.065V21.9352C0 9.82093 9.82093 0 21.9352 0H181.064C193.179 0 203 9.82093 203 21.9352V181.064C203 193.179 193.179 203 181.065 203Z" fill="#44318D"/>
<path d="M111.368 101.5C111.368 125.659 91.9161 145.245 67.9208 145.245C43.9259 145.245 24.4737 125.659 24.4737 101.5C24.4737 77.3401 43.9255 57.7549 67.9208 57.7549C91.9157 57.7549 111.368 77.3401 111.368 101.5Z" fill="white"/>
<path d="M159.03 101.5C159.03 124.242 149.304 142.678 137.307 142.678C125.309 142.678 115.583 124.242 115.583 101.5C115.583 78.7575 125.309 60.3215 137.307 60.3215C149.304 60.3215 159.03 78.7579 159.03 101.5Z" fill="white"/>
<path d="M178.526 101.5C178.526 121.876 175.105 138.394 170.885 138.394C166.666 138.394 163.245 121.876 163.245 101.5C163.245 81.1238 166.666 64.6057 170.885 64.6057C175.105 64.6057 178.526 81.1238 178.526 101.5Z" fill="white"/>
</svg>
