<svg xmlns="http://www.w3.org/2000/svg" width="369.024" height="40.187" viewBox="0 0 369.024 40.187">
  <g id="tkalogo" transform="translate(-0.012 0.004)">
    <path id="Path_3" data-name="Path 3" d="M765.271,23.126a2.752,2.752,0,0,0,.639.26,2.273,2.273,0,0,1,.755.341,5.244,5.244,0,0,1,.843,1.263q1.158,2.1,3.347,7.352l3.9,8.729a48.828,48.828,0,0,1-2.366,5.122.632.632,0,0,1-.567.407,1.708,1.708,0,0,1-.953-.492,3.645,3.645,0,0,0-2.216-1.007,2.923,2.923,0,0,0-1.307.556,3.069,3.069,0,0,0-.994,2.185,1.656,1.656,0,0,0,.444,1.09,2.937,2.937,0,0,0,1.5.922c.7.1,1.09.151,1.162.151a5.283,5.283,0,0,0,1.957-.349,2.733,2.733,0,0,0,.929-.683,11.955,11.955,0,0,0,1.878-2.8l2.434-5.659,3.531-8.537,1.526-4.135q1.1-2.732,1.458-3.559a1.844,1.844,0,0,1,.407-.427c.384-.112.823-.236,1.329-.362a3.61,3.61,0,0,0,.843-.3c0-.167.024-.294.024-.384a5.96,5.96,0,0,0-.044-.8c-.366,0-.915.065-1.646.151a23.849,23.849,0,0,1-2.494.212l-1.144-.041-1.707-.109c-.184,0-.488.017-.908.044a3.521,3.521,0,0,0-.065.547,2.029,2.029,0,0,0,.02.315l.065.3.683.171a9.327,9.327,0,0,1,1.366.225,3.029,3.029,0,0,1,.735.458,3.261,3.261,0,0,1,.127.707,2.328,2.328,0,0,1-.081.56q-.147.6-1.943,5.3-1.5,3.971-1.626,4.227L775.919,32.6q-1.263-2.53-2.469-5.535l-1.024-2.1a8.035,8.035,0,0,1-.253-.858.433.433,0,0,1,.342-.3,4.677,4.677,0,0,1,.508-.1c.167-.035.392-.075.718-.12a2.963,2.963,0,0,0,.484-.085c.028-.171.065-.571.107-1.2a2.041,2.041,0,0,0-.294-.276l-3,.192h-1.1q-1.2,0-3.124-.127c-.212,0-.4-.024-.57-.024a7.791,7.791,0,0,0-1.226.127c.058.294.12.6.192.922M730.526,38.584c.028.3.055.563.082.792l.615.02q2.346-.215,3.992-.215l2.3.02q1.878.175,2.11.175a4.246,4.246,0,0,0,.485-.024,2.765,2.765,0,0,0,.171-.788,3.753,3.753,0,0,0-.065-.512,4.864,4.864,0,0,0-1.171-.376,8.743,8.743,0,0,1-1-.27l-.1-.321a3.559,3.559,0,0,1-.061-.556l-.024-3.213-.061-6.146a2.236,2.236,0,0,0,.127-.6v-.2l-.041-.215a3.824,3.824,0,0,1,.02-.384,3.294,3.294,0,0,1,1.458-1.469,5.364,5.364,0,0,1,2.988-.823,3.87,3.87,0,0,1,2.254.652,3.026,3.026,0,0,1,1.236,1.68,20.4,20.4,0,0,1,.232,4.132L746,31.1l.02,4.343a8.843,8.843,0,0,1-.106,1.735,1.177,1.177,0,0,1-.269.471,1.977,1.977,0,0,1-.276.085,13.364,13.364,0,0,0-2.281.3l.041,1.284.376.065q2.029-.192,2.848-.192l2.254.044c1.069,0,2.1.072,3.1.171l.44.024H753.6a2.856,2.856,0,0,0,.085-.519,2.661,2.661,0,0,0-.171-.782l-.652-.215a3.933,3.933,0,0,1-2.069-.58q-.276-.256-.276-1.67l.02-1.906V31.623l.044-2.247-.065-2.732.044-.622a6.435,6.435,0,0,1,2.172-2.049,4.981,4.981,0,0,1,2.407-.683,3.268,3.268,0,0,1,2.568,1.294,4.1,4.1,0,0,1,.622,1.561,13.3,13.3,0,0,1,.232,2.51l.106,6.028a15.4,15.4,0,0,1-.106,2.288,1.024,1.024,0,0,1-.318.492c-1.024.392-1.631.635-1.813.734l-.024.3a3.5,3.5,0,0,0,.147.854q1.878-.192,5.067-.192a19.692,19.692,0,0,1,2.165.1c.571.061.912.1,1.024.1a5.487,5.487,0,0,0,.843-.109l.024-.434a4.654,4.654,0,0,1-.106-.652,2.135,2.135,0,0,0-.8-.294,6.4,6.4,0,0,1-1.417-.461,1.561,1.561,0,0,1-.253-.834V34.948c.041-1.707.065-2.916.065-3.613v-3.4a6.894,6.894,0,0,0-1.707-4.921,6,6,0,0,0-4.644-1.8,9.368,9.368,0,0,0-2.291.311,7.577,7.577,0,0,0-1.909.71,14.42,14.42,0,0,0-2.513,2.049,6.057,6.057,0,0,0-2.59-2.428,7.489,7.489,0,0,0-3.22-.727,8.483,8.483,0,0,0-3.07.516,13.5,13.5,0,0,0-3.346,2.121l-.044-.384.02-.792-.061-1.707v-.344H736.63a7.641,7.641,0,0,1-1.918,1.727,10.55,10.55,0,0,1-3.21,1.151c-.365.085-.683.164-.95.236v.878a6.552,6.552,0,0,1,2.39,1.024,2.11,2.11,0,0,1,.438,1.489v.512l.024,2.288-.024,2.2v1.239q-.082,3.678-.116,3.893a.315.315,0,0,1-.177.276,5.4,5.4,0,0,1-1.984.451,1.276,1.276,0,0,0-.464.105,2.168,2.168,0,0,0-.106.556m-7.651-11.4c-.171,0-.458.02-.863.059-.563.044-1,.065-1.308.065l-4.815-.044a5.486,5.486,0,0,1,1.287-3.415,3.213,3.213,0,0,1,4.439-.648,3.631,3.631,0,0,1,1.366,1.707,6.439,6.439,0,0,1,.464,2.3h-.571m-11.99,4.275a8.959,8.959,0,0,0,.525,2.612,9.137,9.137,0,0,0,1.226,2.421,7.816,7.816,0,0,0,1.964,1.974,8.168,8.168,0,0,0,2.554,1.178,10.152,10.152,0,0,0,2.732.3,10.408,10.408,0,0,0,4.463-.932,12.114,12.114,0,0,0,3.855-3.008q-.508-.447-1.267-1a10.392,10.392,0,0,1-1.871,1.123,9.408,9.408,0,0,1-1.782.547,13.946,13.946,0,0,1-2.175.106l-1.223-.407a5.274,5.274,0,0,1-1.68-.987,6.235,6.235,0,0,1-1.366-1.642,7.716,7.716,0,0,1-.823-2.206,11.371,11.371,0,0,1-.273-2.39,3.8,3.8,0,0,1,.041-.512h1.817l2.281-.044c.307,0,.871.037,1.687.106q3.295.192,4.266.192l2.346.041a8.277,8.277,0,0,0-.5-2.8,7.132,7.132,0,0,0-1.171-2.014,10.04,10.04,0,0,0-1.9-1.707,6.283,6.283,0,0,0-2.049-.888,13.6,13.6,0,0,0-3.21-.311,8.433,8.433,0,0,0-2.261.41,8.155,8.155,0,0,0-2.418,1.331,10.883,10.883,0,0,0-2.526,2.732,9.692,9.692,0,0,0-.97,2.421,17.435,17.435,0,0,0-.294,3.367m-17.125,3.6a8.475,8.475,0,0,1-1.455-5.334,10.024,10.024,0,0,1,.547-3.121,6.573,6.573,0,0,1,1.185-2.138,3.394,3.394,0,0,1,1.366-.983,4.594,4.594,0,0,1,1.766-.341,4.043,4.043,0,0,1,2.766,1,4.5,4.5,0,0,1,1.394,2.868q.192,1.394.192,8.2,0,.175-.02.881a9.221,9.221,0,0,1-1.683.854,4.327,4.327,0,0,1-1.489.294,5.305,5.305,0,0,1-.761-.041,5.5,5.5,0,0,1-3.8-2.127m-6.628-4.651a11.591,11.591,0,0,0,.895,4.6,8.087,8.087,0,0,0,3.244,3.6,7.721,7.721,0,0,0,4.244,1.024,9.511,9.511,0,0,0,2.657-.341,10.7,10.7,0,0,0,2.578-1.2c.308-.192.571-.341.782-.454a17.052,17.052,0,0,1,.061,1.878c0,.072,0,.236-.02.495a3.941,3.941,0,0,0,.526.044,2.093,2.093,0,0,0,.823-.341,12.793,12.793,0,0,1,4.119-1.024,14.689,14.689,0,0,0,1.817-.317,1.811,1.811,0,0,0,.147-.58,1.694,1.694,0,0,0-.106-.471,4.308,4.308,0,0,0-.823-.106,5.108,5.108,0,0,1-1.858-.341q-.042-1.071-.041-1.841V33.445c0-.2,0-.42-.02-.663-.028-.6-.044-1.27-.044-2.014s.017-1.3.044-1.707l.02-.451V27.432a8.787,8.787,0,0,1-.065-.922c0-.112,0-.288.02-.512v-.792c0-.157-.02-.341-.02-.536,0-1.226.017-2.127.044-2.7l.031-1.308-.065-2.226.024-1.069-.024-.622V15.6q-.062-2.59-.062-3.193v-.376l.02-.317a2.739,2.739,0,0,0-.127-.666,2.167,2.167,0,0,0-.348-.044,5.285,5.285,0,0,0-.782.151l-2.059.48-.717.151a14.5,14.5,0,0,1-2.472.437,3.69,3.69,0,0,0-1.024.14v1.024a3.413,3.413,0,0,0,1.281.28,1.23,1.23,0,0,1,1.107.618q.547.959.55,4.583l-.085,2.292v1.45l-.041.512a7.194,7.194,0,0,0-4.4-1.622h-1.182a13.065,13.065,0,0,0-2.732.492,7.884,7.884,0,0,0-1.994,1.048,9.119,9.119,0,0,0-3.927,7.386m-9.675,1.93a13.8,13.8,0,0,1-.192,3.093,4.154,4.154,0,0,1-1.307,1.465,3.033,3.033,0,0,1-2.012.684,1.677,1.677,0,0,1-1.267-.6,2.161,2.161,0,0,1-.547-1.519,3.3,3.3,0,0,1,.423-1.735,6.413,6.413,0,0,1,2.1-1.918,12.925,12.925,0,0,1,2.712-1.366q.086.942.085,1.885m6.461,3.237-.635,1.024a.626.626,0,0,1-.393.129.72.72,0,0,1-.611-.341,2.233,2.233,0,0,1-.239-1.23V34.5L682,31.906l.044-3.535a14.162,14.162,0,0,0-.48-4.474,3.445,3.445,0,0,0-1.674-1.874,6.228,6.228,0,0,0-2.905-.628,14.274,14.274,0,0,0-4.439.6,10.818,10.818,0,0,0-2.861,1.639,9.147,9.147,0,0,0-2.291,2.39,4.162,4.162,0,0,0-.5,2.1.919.919,0,0,0,.3.731A4.548,4.548,0,0,0,669,28.293c.192-.1.576-.263,1.127-.48a2.708,2.708,0,0,0,1.151-.741,3.2,3.2,0,0,0,.276-1.09,5.292,5.292,0,0,1,.506-1.779,2.883,2.883,0,0,1,1.287-1.048,4.628,4.628,0,0,1,1.943-.407,1.637,1.637,0,0,1,1.479.642,7.877,7.877,0,0,1,.683,3.94c0,.556-.02,1.1-.065,1.646l-5.243,2.167q-1.366.6-1.6.727a9.719,9.719,0,0,0-2.206,1.574,4.858,4.858,0,0,0-1,1.449,3.68,3.68,0,0,0-.307,1.439,3.142,3.142,0,0,0,1.024,2.452,4.706,4.706,0,0,0,3.233.932,9,9,0,0,0,4.029-.823,5.881,5.881,0,0,0,2.554-2.452,6.008,6.008,0,0,0,1.635,2.452,3.414,3.414,0,0,0,2.145.683,3,3,0,0,0,2.049-.717,5.229,5.229,0,0,0,1.331-2.622l-.024-.106a.587.587,0,0,0-.232-.365l-.485-.321Zm-22.219-.7a7.667,7.667,0,0,1-.874.922,7.031,7.031,0,0,1-1.421.836,6.619,6.619,0,0,1-2.049.276,5.735,5.735,0,0,1-4.337-2.11,8.141,8.141,0,0,1-1.913-5.682,6.731,6.731,0,0,1,1.563-4.7A4.693,4.693,0,0,1,656.22,22.7a2.366,2.366,0,0,1,1.414.427,3.206,3.206,0,0,1,.97,1.439,4.247,4.247,0,0,0,1.215,1.95,2.5,2.5,0,0,0,1.6.576,2.008,2.008,0,0,0,1.591-.652,2.578,2.578,0,0,0,.58-1.786,3.141,3.141,0,0,0-1.439-2.315q-1.439-1.158-5.084-1.151a11.908,11.908,0,0,0-4.781.922,9.9,9.9,0,0,0-3.514,2.482,9.53,9.53,0,0,0-2,3.329,10.008,10.008,0,0,0-.591,3.156,10.357,10.357,0,0,0,.468,2.81,7.51,7.51,0,0,0,1.423,2.782,8.674,8.674,0,0,0,3.3,2.39,10.422,10.422,0,0,0,4.18.9,9.348,9.348,0,0,0,5.553-1.564,6.656,6.656,0,0,0,2.766-3.7,2.312,2.312,0,0,0-.782-.536,4.252,4.252,0,0,1-.505-.26c-.157.175-.447.508-.878,1.024m-25.22-2.527a13.8,13.8,0,0,1-.192,3.093,4.155,4.155,0,0,1-1.307,1.465,3.032,3.032,0,0,1-2.008.683,1.673,1.673,0,0,1-1.267-.6,2.163,2.163,0,0,1-.547-1.519,3.341,3.341,0,0,1,.42-1.735,6.452,6.452,0,0,1,2.1-1.95,13.021,13.021,0,0,1,2.732-1.366c.055.628.085,1.257.085,1.885m6.444,3.237-.635,1.024a.625.625,0,0,1-.393.129.731.731,0,0,1-.615-.341,2.242,2.242,0,0,1-.236-1.23V34.5l-.044-2.59.044-3.535a14.16,14.16,0,0,0-.48-4.474,3.453,3.453,0,0,0-1.67-1.875,6.25,6.25,0,0,0-2.906-.628,14.274,14.274,0,0,0-4.439.6,10.759,10.759,0,0,0-2.861,1.639,9.093,9.093,0,0,0-2.292,2.39,4.164,4.164,0,0,0-.5,2.1.929.929,0,0,0,.294.731,4.518,4.518,0,0,0,1.817-.556c.2-.1.576-.263,1.13-.48a2.708,2.708,0,0,0,1.151-.741,3.234,3.234,0,0,0,.273-1.09,5.343,5.343,0,0,1,.485-1.762,2.878,2.878,0,0,1,1.287-1.048,4.617,4.617,0,0,1,1.943-.407,1.63,1.63,0,0,1,1.475.642,7.631,7.631,0,0,1,.683,3.94c0,.556-.02,1.1-.065,1.646l-5.222,2.15c-.919.4-1.451.642-1.6.727a9.637,9.637,0,0,0-2.206,1.574,4.725,4.725,0,0,0-.994,1.445,3.678,3.678,0,0,0-.307,1.439,3.142,3.142,0,0,0,1.024,2.452,4.706,4.706,0,0,0,3.233.932,9,9,0,0,0,4.029-.823,5.9,5.9,0,0,0,2.554-2.452,6.007,6.007,0,0,0,1.635,2.452,3.415,3.415,0,0,0,2.141.683,3.005,3.005,0,0,0,2.049-.717,5.285,5.285,0,0,0,1.328-2.622l-.02-.106a.6.6,0,0,0-.232-.365l-.484-.321Z" transform="translate(-416.739 -10.731)" fill="#fff"/>
    <path id="Path_4" data-name="Path 4" d="M262.379,24.341a4.761,4.761,0,0,1,3.927-1.863,4.316,4.316,0,0,1,2.049.461,2.924,2.924,0,0,1,1.3,1.3,3.415,3.415,0,0,1,.423,1.51,1.141,1.141,0,0,1-.384.727,2.653,2.653,0,0,1-1.024.171q-5.341.341-6.42.341h-.994a4.366,4.366,0,0,1,1.14-2.657m10.645,3.13a5.869,5.869,0,0,0-.833-2.782,6.42,6.42,0,0,0-2.524-2.482,6.3,6.3,0,0,0-3.209-.727,8.148,8.148,0,0,0-3.186.58,9.824,9.824,0,0,0-2.217,1.431,6.147,6.147,0,0,0-1.5,1.865,12.731,12.731,0,0,0-1.257,3.145,11.026,11.026,0,0,0-.341,2.421,9.735,9.735,0,0,0,1.236,5.061,7.229,7.229,0,0,0,3.388,3.032,7.481,7.481,0,0,0,2.933.624,10.076,10.076,0,0,0,2.366-.192,11.426,11.426,0,0,0,2.957-1.366,9.4,9.4,0,0,0,2.39-2.141,2.643,2.643,0,0,0,.02-.321l-.127-.858-1.519,1.263a9.782,9.782,0,0,1-2.029,1.093,7.741,7.741,0,0,1-1.918.3,7.085,7.085,0,0,1-3.756-1.062,6.324,6.324,0,0,1-2.318-2.889,8.44,8.44,0,0,1-.819-3.165l.02-1.048v-.215l-.02-.215a3.883,3.883,0,0,1,.192-.878c.683-.059,1.335-.089,1.984-.089h1.6l8.465-.065ZM239.008,45.307a3.684,3.684,0,0,1,1.366-2.868A5.973,5.973,0,0,1,244.4,40.9q.8,0,4.347.28a10.167,10.167,0,0,1,1.918.276,4.548,4.548,0,0,1,1.53.683,3.177,3.177,0,0,1,.919,1.114,3.005,3.005,0,0,1,.341,1.366,3.971,3.971,0,0,1-.959,2.366,6.052,6.052,0,0,1-3.043,1.926,13.418,13.418,0,0,1-4.17.683,7.65,7.65,0,0,1-4.855-1.5,3.645,3.645,0,0,1-1.439-2.782m3.165-21.558A3.466,3.466,0,0,1,245.2,22.3a3.845,3.845,0,0,1,3.069,1.535,6.844,6.844,0,0,1,1.266,4.462,6.522,6.522,0,0,1-1.212,4.336,3.852,3.852,0,0,1-3.063,1.414,3.671,3.671,0,0,1-2-.632,4.19,4.19,0,0,1-1.564-1.926,8.017,8.017,0,0,1-.571-3.22,7.9,7.9,0,0,1,1.024-4.518m-1.267,17.32a9.461,9.461,0,0,0-3.5,2.62,4.055,4.055,0,0,0-.843,2.09,3.187,3.187,0,0,0,.767,1.95,6.891,6.891,0,0,0,2.609,1.817,13.025,13.025,0,0,0,5.214.836,14.874,14.874,0,0,0,5.426-.922,8.108,8.108,0,0,0,3.524-2.39,5.092,5.092,0,0,0,1.164-3.213,4.988,4.988,0,0,0-.683-2.494,4.357,4.357,0,0,0-2.014-1.854,10.216,10.216,0,0,0-3.78-.707q-5.593-.171-7.6-1.263c-.505-.288-.758-.576-.758-.878s.246-.567.767-.908a6.758,6.758,0,0,1,3.568-.987c.392,0,.632.024.717.024a7.335,7.335,0,0,0,3.377-.858,6.3,6.3,0,0,0,2.616-2.482,6.235,6.235,0,0,0,.95-3.148,7.709,7.709,0,0,0-.908-3.357,3.122,3.122,0,0,1,.4-.044,9.985,9.985,0,0,1,1.659.376,8.536,8.536,0,0,0,1.953.376.724.724,0,0,0,.516-.171.683.683,0,0,0,.181-.516,3,3,0,0,0-.252-1.439,1.519,1.519,0,0,0-.8-.192c-.171,0-.717.059-1.635.181s-1.506.181-1.745.181a2.494,2.494,0,0,1-.758-.106c-.1-.041-.431-.243-.994-.6a9.52,9.52,0,0,0-2-1.072,7.991,7.991,0,0,0-2.6-.407,6.967,6.967,0,0,0-5.122,1.981,6.564,6.564,0,0,0-2,4.849,6.143,6.143,0,0,0,3.148,5.467c.392.243.683.431.863.556a17.958,17.958,0,0,1-2.257.878,4.6,4.6,0,0,0-1.837.943,1.27,1.27,0,0,0-.317.9,1.742,1.742,0,0,0,.423,1.137,10.244,10.244,0,0,0,2.025,1.561q1.366.576,1.626.707c-.2.116-.556.307-1.075.58m-12.512-3.493a8.967,8.967,0,0,1-2.837.427,5.947,5.947,0,0,1-4.531-1.946,7.378,7.378,0,0,1-1.822-5.225,8.281,8.281,0,0,1,1.683-5.631,5.269,5.269,0,0,1,4.1-1.906,5.665,5.665,0,0,1,3.111.888,4.008,4.008,0,0,1,1.738,1.885,18.9,18.9,0,0,1,.341,4.781q0,4.477-.085,5.908a5.071,5.071,0,0,1-1.707.816m.819-14.431a11.119,11.119,0,0,0-4.689-.858,12.75,12.75,0,0,0-2.5.492,7.266,7.266,0,0,0-1.918.908,7.826,7.826,0,0,0-1.8,1.445,8.575,8.575,0,0,0-1.6,2.793,10.264,10.264,0,0,0-.611,3.524A9.345,9.345,0,0,0,217,35.469a7.171,7.171,0,0,0,2.66,3.069,6.324,6.324,0,0,0,3.4,1.1,15.468,15.468,0,0,0,6.061-1.414,11.447,11.447,0,0,1,1.12-.431v2.049a6.082,6.082,0,0,0,1.075-.127l3.069-.6q.7-.128,1.366-.276a2.712,2.712,0,0,0,.017-.321v-.384c-.341-.027-.6-.044-.8-.044a2.822,2.822,0,0,1-1.858-.447c-.14-.129-.208-.683-.208-1.707l.061-4.945L232.8,21.7l.085-8.243c0-1.2-.031-2.281-.085-3.251l-1.075.02a22.637,22.637,0,0,1-4.942,1,2.733,2.733,0,0,0-.044.471v.236l.464.129a5.384,5.384,0,0,1,2.472,1.093,4.664,4.664,0,0,1,.42,2.5l-.02,4.733.02,2.5-.02.622c-.192-.072-.485-.2-.863-.384m-26.5,1.2a4.76,4.76,0,0,1,3.948-1.86,4.316,4.316,0,0,1,2.049.461,2.923,2.923,0,0,1,1.3,1.3,3.415,3.415,0,0,1,.423,1.51,1.141,1.141,0,0,1-.384.727,2.653,2.653,0,0,1-1.024.171q-5.341.341-6.42.341h-.987a4.366,4.366,0,0,1,1.14-2.657m10.64,3.13a5.87,5.87,0,0,0-.834-2.782,6.4,6.4,0,0,0-2.524-2.482,6.3,6.3,0,0,0-3.209-.727,8.147,8.147,0,0,0-3.186.58,9.826,9.826,0,0,0-2.216,1.431,6.148,6.148,0,0,0-1.5,1.865,12.732,12.732,0,0,0-1.257,3.145,11.038,11.038,0,0,0-.342,2.421,9.736,9.736,0,0,0,1.233,5.054A7.215,7.215,0,0,0,202.948,39a7.481,7.481,0,0,0,2.953.622,10.078,10.078,0,0,0,2.366-.192,11.427,11.427,0,0,0,2.957-1.366,9.4,9.4,0,0,0,2.4-2.121,2.633,2.633,0,0,0,.017-.321l-.123-.858-1.523,1.263a9.687,9.687,0,0,1-2.025,1.093,7.74,7.74,0,0,1-1.918.3,7.086,7.086,0,0,1-3.756-1.062,6.356,6.356,0,0,1-2.322-2.889,8.49,8.49,0,0,1-.843-3.186l.02-1.048V29.02l-.02-.215a3.887,3.887,0,0,1,.192-.878c.683-.059,1.335-.089,1.984-.089h1.6l8.465-.065Zm-23.98-14.23a2.285,2.285,0,0,1,.994.663,1.9,1.9,0,0,1,.232,1.079l-.061,2.506.02,5.1-.065,5.1.024,4.924q0,3.575-.085,4.347a1.083,1.083,0,0,1-.263.714,5.339,5.339,0,0,1-1.585.4,7.758,7.758,0,0,0-1.519.341.372.372,0,0,0-.14.321.384.384,0,0,0,.129.307.659.659,0,0,0,.505.129l3.549-.171,2.766.1,2.217.072a.488.488,0,0,0,.341-.1.458.458,0,0,0,.1-.341.311.311,0,0,0-.171-.3,5.417,5.417,0,0,0-1.539-.306q-1.3-.151-1.55-.532a8.919,8.919,0,0,1-.192-2.681q0-.127.061-2.121.109-3.384.1-20.974V10.619h-1q-2.08.707-3.141,1.048c-.48.144-.912.276-1.308.407v.471c.288.144.8.372,1.564.683m-31.941,9.3a4.758,4.758,0,0,0,.02.488l.782.129a3.537,3.537,0,0,1,1.267.384,2.892,2.892,0,0,1,.591.812l3.645,7.236,4,8.458a3.315,3.315,0,0,0,.44.041,3.83,3.83,0,0,0,.461-.041q1.066-1.663,4.5-8.94c.315.663.656,1.462,1.024,2.39q2.029,5.313,2.62,6.488a1.329,1.329,0,0,0,.4.085.509.509,0,0,0,.342-.106,1.253,1.253,0,0,0,.263-.451c.1-.229.229-.526.41-.9q1.3-2.653,1.834-3.94l3.756-9.2a6.619,6.619,0,0,1,1.6-1.939,4.207,4.207,0,0,1,1.626-.48,2.2,2.2,0,0,0,.065-.516.315.315,0,0,0-.055-.212.341.341,0,0,0-.177-.106h-1.055c-.55.027-1.024.041-1.458.041-.547,0-1.114,0-1.687-.031s-.9-.035-.974-.035L180,22.2h-.315a.635.635,0,0,0-.236.42.57.57,0,0,0,.105.27,8.728,8.728,0,0,0,1.164.321,3.909,3.909,0,0,1,1.67.646,1.117,1.117,0,0,1,.359.84,5.525,5.525,0,0,1-.611,2.261c-.632,1.366-1.14,2.574-1.516,3.572a55.341,55.341,0,0,1-2.494,5.932q-.529-1.072-1.523-3.756l-2.247-6.03c-.243-.741-.389-1.185-.447-1.328a3.678,3.678,0,0,1-.252-1.178.724.724,0,0,1,.232-.447,6.123,6.123,0,0,1,2.134-.536,2.76,2.76,0,0,0,1.055-.28l.041-.683c-.153,0-.273-.024-.359-.024H176.4c-.14,0-.318.024-.526.024l-2.6-.044-.8.02h-2.64l-1.2-.02a3.5,3.5,0,0,0-.8.129.84.84,0,0,0-.127.362l.02.151a5.123,5.123,0,0,0,1.325.492,4.842,4.842,0,0,1,1.294.485,3.445,3.445,0,0,1,.505,1.1c.219.628.4,1.1.539,1.414l1.294,3.435a62.675,62.675,0,0,1-3.453,7.072l-2.53-5.17q-1.837-3.791-2.554-5.467a15.446,15.446,0,0,1-.611-1.519,1.745,1.745,0,0,1-.044-.407.819.819,0,0,1,.359-.707,4.342,4.342,0,0,1,1.822-.362.652.652,0,0,0,.317-.6.362.362,0,0,0-.085-.256.437.437,0,0,0-.318-.085l-8.107-.024c0,.144-.02.252-.02.341M142.974,36.811q-1.742-2-1.742-5.9a11.563,11.563,0,0,1,1-5.351,5.5,5.5,0,0,1,2.456-2.55,6.829,6.829,0,0,1,2.845-.663,5.324,5.324,0,0,1,3.347,1.106A6.442,6.442,0,0,1,153,26.764a13.252,13.252,0,0,1,.683,3.872,10.682,10.682,0,0,1-.888,4.487,6.068,6.068,0,0,1-2.39,2.814,6,6,0,0,1-3.084.884,5.532,5.532,0,0,1-4.347-2m-3.756-1.659a8.95,8.95,0,0,0,2.973,3.1,9.456,9.456,0,0,0,4.941,1.394,9.677,9.677,0,0,0,7.021-2.686,8.364,8.364,0,0,0,2.786-6.122,9.138,9.138,0,0,0-2.65-6.594,8.8,8.8,0,0,0-6.6-2.738,10.972,10.972,0,0,0-4.689.908,8.482,8.482,0,0,0-2.6,1.969,8.7,8.7,0,0,0-1.822,2.973,9.119,9.119,0,0,0-.6,3.114,8.841,8.841,0,0,0,1.247,4.689M115.117,38.8l.035.276h.529l2-.024,4.562.065h2.217l.035-.427a.8.8,0,0,0-.571-.431c-.14-.027-.434-.106-.878-.236s-.834-.225-1.171-.3a1.39,1.39,0,0,1-.683-.28.974.974,0,0,1-.147-.471q-.1-.834-.105-4.538l-.061-4.73c0-.485,0-1.072.041-1.755a9.292,9.292,0,0,1,2.62-1.9,6.417,6.417,0,0,1,2.766-.632,4.053,4.053,0,0,1,2.926,1.055q1.1,1.045,1.1,3.815L130.291,30v1.116c0,2.612.044,4.251.085,4.907q.04.45.041.6a2.007,2.007,0,0,1-.252.858,2.346,2.346,0,0,1-.571.341,3.517,3.517,0,0,1-.843.129,4.988,4.988,0,0,0-1.6.341.683.683,0,0,0-.147.341l.127.451c.858.041,1.8.048,2.807.02l2.732-.065,2.786.044h.4a1.584,1.584,0,0,0,.127-.536v-.171a5.062,5.062,0,0,0-2.366-.683,1.256,1.256,0,0,1-.55-.556,8.632,8.632,0,0,1-.127-1.906c0-.632,0-1.188.035-1.673s.031-.767.031-.858V29.489a22.168,22.168,0,0,0-.368-5.071A4.282,4.282,0,0,0,131.02,22.2a4.8,4.8,0,0,0-2.973-.946,5.761,5.761,0,0,0-1.479.175,12.294,12.294,0,0,0-2.366.85,13.659,13.659,0,0,0-2.6,1.578c-.225.171-.423.315-.591.431L121,23.9V22.478c0-.288-.02-.767-.065-1.439l-.717-.02a7.68,7.68,0,0,1-2.029,2.616,6.221,6.221,0,0,1-2.363,1.116v.782a3.7,3.7,0,0,1,2.11.834,2.837,2.837,0,0,1,.341,1.707l.044,6.549c0,.44,0,.806-.024,1.09l-.041.767a1.769,1.769,0,0,1-.263,1.175,3.573,3.573,0,0,1-1.6.447,10.471,10.471,0,0,0-1.226.256,2.132,2.132,0,0,0-.061.427m-18.474.28c.384,0,.9,0,1.561-.044,1.1-.041,2.11-.065,3.043-.065.576,0,1.287,0,2.131.024a.854.854,0,0,0-.212-.6,2.39,2.39,0,0,0-1.12-.321,1.4,1.4,0,0,1-1.1-.512,7.871,7.871,0,0,1-.423-3.288c0-1.834.031-3.008.085-3.52h.8a2.312,2.312,0,0,1,1.257.288,15,15,0,0,1,2.014,2.049q2.449,2.76,3.069,3.575a2.515,2.515,0,0,1,.611,1.178.683.683,0,0,1-.359.236,18.7,18.7,0,0,1-2.418.276.628.628,0,0,0-.232.236v.151a.9.9,0,0,0,.061.3,1.274,1.274,0,0,0,.444.085,4.609,4.609,0,0,0,.464-.041l5.87-.175h.365q.652,0,2.151.129l.02-.215a1.432,1.432,0,0,0-.082-.407l-.952-.192a4.942,4.942,0,0,1-1.751-.6c-.181-.144-.823-.834-1.918-2.077q-.44-.512-.8-.943-1.1-1.328-3.377-3.756c-.434-.471-.738-.806-.908-1.024a2.413,2.413,0,0,0-.341-.384,2.083,2.083,0,0,1-.276-.362l.762-.683q.758-.646,1.793-1.587a16.812,16.812,0,0,1,3.357-2.458,6.181,6.181,0,0,1,1.991-.58l.994-.192a.97.97,0,0,0,.1-.384V22.9c-1.055-.041-2.049-.065-2.973-.065q-2.469,0-5.805.129a1.367,1.367,0,0,0-.106.427l.041.215a5.775,5.775,0,0,1,.635.151c.184.044.341.079.5.106a4.439,4.439,0,0,1,1.414.471,1.1,1.1,0,0,1,.276.6q0,.384-.843,1.254a40.5,40.5,0,0,1-4.142,3.261,2.5,2.5,0,0,1-1.458.532l-.232-.02c0-.341-.02-.635-.02-.836V27.509l.061-5.266-.027-4.251.02-2.544-.061-1.707.02-.919v-1.84c0-.072,0-.27.02-.6H99.98Q98,11.5,97.515,11.709a12.028,12.028,0,0,1-2.13.642c0,.16-.024.28-.024.365v.256a5.441,5.441,0,0,1,2.312.611,2.3,2.3,0,0,1,.341,1.51l-.035,3.241.085,3.723a13,13,0,0,1-.044,1.39q-.041,1.239-.041,1.439l.041,1.5-.041,8.449a9.128,9.128,0,0,1-.232,2.92c-.153.236-.539.376-1.151.416a10,10,0,0,0-1.066.1.806.806,0,0,0-.317.157l.041.622c.648,0,1.114.024,1.4.024" transform="translate(-67.252 -10.21)" fill="#fff"/>
    <path id="Path_5" data-name="Path 5" d="M36.114,48.559a9.319,9.319,0,0,1,1.84-2.6,1.513,1.513,0,0,1,.888-.444.71.71,0,0,1,.539.273,1,1,0,0,1,.243.683,3.472,3.472,0,0,1-.229,1.233,4.316,4.316,0,0,1-.683,1.151,3.787,3.787,0,0,1-.779.782,7.448,7.448,0,0,1-1.39.792,4.135,4.135,0,0,1-1.421.341,12,12,0,0,1,.987-2.206m1.024,2.425a9.181,9.181,0,0,0,1.066-.368l1.178-.779a3.391,3.391,0,0,0,.871-1.134,3.326,3.326,0,0,0,.407-1.564,2.165,2.165,0,0,0-.522-1.482,1.6,1.6,0,0,0-1.22-.594,2.52,2.52,0,0,0-1.045.222,4.056,4.056,0,0,0-1,.656q-.127.112-1.191,1.267l-1.1,1.614a16.141,16.141,0,0,0-.95,1.9,9.22,9.22,0,0,0-.473,1.61,8.176,8.176,0,0,0-.205,1.657,4.036,4.036,0,0,0,.683,2.5,1.557,1.557,0,0,0,1.277.677,3.2,3.2,0,0,0,2.172-.959,6.783,6.783,0,0,0,2.1-3.156,3.3,3.3,0,0,0-.384-.027h-.2a5.644,5.644,0,0,1-.683,1.366,6.85,6.85,0,0,1-.788.974,3.787,3.787,0,0,1-.9.642,1.123,1.123,0,0,1-.553.129.959.959,0,0,1-.81-.4,2.494,2.494,0,0,1-.454-1.564,7.783,7.783,0,0,1,.468-2.64q1.366-.276,2.23-.543m-10.9-12.565a.6.6,0,0,1,.341.14.4.4,0,0,1,.085.27,3.35,3.35,0,0,1-.229.871l-.571,1.67L21.9,53.005c-.048.127-.1.252-.153.376l-.994,2.574a2.425,2.425,0,0,0-.222.792.431.431,0,0,0,.129.341.683.683,0,0,0,.434.1.724.724,0,0,0,.44-.123,1.366,1.366,0,0,0,.341-.563q.341-.882,1.318-3.043a21.93,21.93,0,0,1,1.39-2.76,39.735,39.735,0,0,1,2.837-3.671,6.416,6.416,0,0,1,1.67-1.343,1.045,1.045,0,0,1,.458-.112.7.7,0,0,1,.584.27,1.813,1.813,0,0,1,.215,1.055,14.484,14.484,0,0,1-.922,4.163,19.184,19.184,0,0,1-2.069,4.7c-.311.413-.556.618-.734.618a.646.646,0,0,1-.407-.219,2.732,2.732,0,0,0-.526-.652.751.751,0,0,0-.451-.123.908.908,0,0,0-.6.192.553.553,0,0,0-.225.413,1.366,1.366,0,0,0,.434.908,1.114,1.114,0,0,0,.836.3,3.148,3.148,0,0,0,1.424-.4A6.611,6.611,0,0,0,29,55a12.765,12.765,0,0,0,1.913-3.616,11.686,11.686,0,0,0,.81-3.879,2.909,2.909,0,0,0-.523-1.9,1.578,1.578,0,0,0-1.23-.632,3,3,0,0,0-1.822.717,19.183,19.183,0,0,0-3.4,3.975c-.243.355-.437.611-.584.8.41-1.331.847-2.572,1.318-3.708A40.336,40.336,0,0,0,26.83,42.91c.232-.767.413-1.331.543-1.707l.823-2.39.384-.966.068-.273H28.2c-.341,0-1.3.089-2.913.273l-.059.3a5.188,5.188,0,0,0,1,.3m-9.486,9.561-2.09,5.074-.6,1.366a7.2,7.2,0,0,0-.683,1.943.56.56,0,0,0,.164.437.741.741,0,0,0,.512.153,1.707,1.707,0,0,0,.659-.144,8.9,8.9,0,0,0,1.055-.683A10.824,10.824,0,0,0,17.2,55.009a29.365,29.365,0,0,0,1.958-2.3,2,2,0,0,0-.416-.3,16.89,16.89,0,0,1-2.329,2.517,1.609,1.609,0,0,1-.95.492l-.177-.024a.341.341,0,0,1-.085-.2q.935-2.281,1.322-3.069l2.312-5.617a3.07,3.07,0,0,1,.827-.147h.576a14.624,14.624,0,0,0,1.471-.059,1.578,1.578,0,0,0,.171-.775l-1.366.027h-.767c-.048,0-.2-.024-.48-.072A5.936,5.936,0,0,1,19.5,44.8a23.111,23.111,0,0,0,1.247-3.2v-.232A3.1,3.1,0,0,0,20.1,41.3a5.086,5.086,0,0,0-.724.041,6.926,6.926,0,0,0-.307.762c-.3.858-.584,1.6-.863,2.22-.127.276-.288.648-.471,1.106-.26.031-1.075.065-2.456.1a2.049,2.049,0,0,0-.263.731H15.2l.922-.031H17.38q-.252.755-.652,1.745" transform="translate(-13.356 -28.228)" fill="#fff"/>
  </g>
</svg>
