<?xml version="1.0" encoding="UTF-8"?>
<svg width="24px" height="24px" viewBox="0 0 24 24" version="1.1" xmlns="http://www.w3.org/2000/svg" xmlns:xlink="http://www.w3.org/1999/xlink">
    <title>Voice</title>
    <g id="Voice" stroke="none" stroke-width="1" fill="none" fill-rule="evenodd">
        <g transform="translate(5.000000, 3.000000)" fill-rule="nonzero">
            <path d="M7.10000001,12.1948429 C8.99750003,12.1948429 10.55,10.6423429 10.55,8.7448429 L10.55,3.95000002 C10.55,2.05250001 8.99750003,0.5 7.10000001,0.5 C5.2025,0.5 3.65,2.05250001 3.65,3.95000002 L3.65,8.7448429 C3.65,10.6423429 5.2025,12.1948429 7.10000001,12.1948429 L7.10000001,12.1948429 Z" id="Path" stroke="#B9B9B9" stroke-width="1.5"></path>
            <path d="M13.2832898,6.10820888 L12.5313316,6.10820888 C12.3245431,6.10820888 12.1553525,6.27739948 12.1553525,6.48418799 L12.1553525,8.93350392 L12.1547885,8.93350392 C12.1547885,8.94177546 12.1553525,8.950047 12.1553525,8.95831854 C12.1553525,11.7569191 9.87861097,14.0336606 7.07982245,14.0336606 C4.28103394,14.0336606 2.00391645,11.7569191 2.00391645,8.95831854 C2.00391645,8.950047 2.00448042,8.94177546 2.00466841,8.93350392 L2.00391645,8.93350392 L2.00391645,6.48418799 C2.00391645,6.27739948 1.83472585,6.10820888 1.62793734,6.10820888 L0.875979112,6.10820888 C0.669190601,6.10820888 0.5,6.27739948 0.5,6.48418799 L0.5,8.92805222 L0.500751958,8.92805222 C0.500751958,8.93820366 0.5,8.9481671 0.5,8.95831854 C0.5,12.3370548 3.0487624,15.1198642 6.32767624,15.4935875 L6.32767624,16.8236136 L4.63577023,16.8236136 C4.42879373,16.8236136 4.25979112,16.9928042 4.25979112,17.1995927 L4.25979112,17.9515509 C4.25979112,18.1583394 4.42879373,18.32753 4.63577023,18.32753 L9.52349869,18.32753 C9.73028721,18.32753 9.89947781,18.1583394 9.89947781,17.9515509 L9.89947781,17.1995927 C9.89947781,16.9928042 9.73028721,16.8236136 9.52349869,16.8236136 L7.83159269,16.8236136 L7.83159269,15.4935875 C11.1105065,15.1200522 13.6592689,12.3370548 13.6592689,8.95831854 C13.6592689,8.9481671 13.658517,8.93820366 13.658329,8.92805222 L13.6592689,8.92805222 L13.6592689,6.48418799 C13.6592689,6.27739948 13.4900783,6.10820888 13.2832898,6.10820888" id="Fill-13" fill="#B9B9B9"></path>
        </g>
    </g>
</svg>