<svg width="20" height="20" viewBox="0 0 20 20" fill="none" xmlns="http://www.w3.org/2000/svg">
<g clip-path="url(#clip0_57_63482)">
<path d="M17.7347 9.74982V19.9998H2.23474V9.74982L9.98474 3.6665L17.7347 9.74982Z" fill="#BCE0FF"/>
<path d="M17.7347 9.74982V19.9998H2.23474V9.74982L9.98474 3.6665L17.7347 9.74982Z" fill="#BCE0FF"/>
<path d="M6.27641 1.9585V5.91686L3.31805 7.66686V1.9585H6.27641Z" fill="#BCE0FF"/>
<path d="M7.19341 0H2.40161V1.9582H7.19341V0Z" fill="#BCE0FF"/>
<path d="M18.8597 10.3333C18.6097 10.3333 18.3597 10.25 18.1931 10.0833L9.98475 3.66671L1.81807 10.0833C1.31807 10.4583 0.651388 10.375 0.276388 9.91667C-0.0986116 9.41667 -0.0152913 8.74999 0.443068 8.37499L9.31807 1.37499C9.73475 1.04167 10.2764 1.04167 10.6931 1.37499L19.5264 8.33331C20.0264 8.70831 20.1097 9.41663 19.6931 9.87499C19.5264 10.1667 19.1931 10.3333 18.8597 10.3333Z" fill="#0090FF"/>
<path d="M17.7347 9.74982V10.5415L9.98474 4.45814L2.23474 10.5415V9.74982L9.98474 3.6665L17.7347 9.74982Z" fill="#BCE0FF"/>
<path d="M6.23485 1.95801H3.31805V2.54133H6.23485V1.95801Z" fill="#BCE0FF"/>
<path d="M12.9847 20.0002H6.98474V14.7085C6.98474 13.0418 8.31806 11.7085 9.98474 11.7085C11.6514 11.7085 12.9847 13.0418 12.9847 14.7085V20.0002Z" fill="#0090FF"/>
<path d="M12.1512 16.333C12.4273 16.333 12.6512 16.1091 12.6512 15.833C12.6512 15.5569 12.4273 15.333 12.1512 15.333C11.875 15.333 11.6512 15.5569 11.6512 15.833C11.6512 16.1091 11.875 16.333 12.1512 16.333Z" fill="white"/>
<path d="M9.9848 9.79199C11.0203 9.79199 11.8598 8.95253 11.8598 7.91699C11.8598 6.88146 11.0203 6.04199 9.9848 6.04199C8.94927 6.04199 8.1098 6.88146 8.1098 7.91699C8.1098 8.95253 8.94927 9.79199 9.9848 9.79199Z" fill="white"/>
<path d="M9.98474 6.45814C10.9431 6.45814 11.7347 7.16646 11.8181 8.12482C11.8181 8.0415 11.8597 7.99982 11.8597 7.9165C11.8597 6.87482 11.0264 6.0415 9.98474 6.0415C8.94306 6.0415 8.10974 6.87482 8.10974 7.9165C8.10974 7.99982 8.10974 8.0415 8.15142 8.12482C8.23474 7.20814 9.02642 6.45814 9.98474 6.45814Z" fill="white"/>
</g>
<defs>
<clipPath id="clip0_57_63482">
<rect width="20" height="20" fill="white"/>
</clipPath>
</defs>
</svg>
