<svg width="15" height="15" viewBox="0 0 15 15" fill="none" xmlns="http://www.w3.org/2000/svg">
<path d="M6.4375 1.59375L7.125 0.90625C7.4375 0.625 7.90625 0.625 8.1875 0.90625L14.2812 6.96875C14.5625 7.28125 14.5625 7.75 14.2812 8.03125L8.1875 14.125C7.90625 14.4062 7.4375 14.4062 7.125 14.125L6.4375 13.4375C6.15625 13.125 6.15625 12.6562 6.4375 12.3438L10.2188 8.75H1.25C0.8125 8.75 0.5 8.4375 0.5 8V7C0.5 6.59375 0.8125 6.25 1.25 6.25H10.2188L6.4375 2.6875C6.15625 2.375 6.125 1.90625 6.4375 1.59375Z" fill="#0090FF"/>
</svg>
