<svg width="15" height="16" viewBox="0 0 15 16" fill="none" xmlns="http://www.w3.org/2000/svg">
<g id="Layer 2">
<path id="Vector" d="M7.5 0.5C6.01664 0.5 4.56659 0.939867 3.33323 1.76398C2.09986 2.58809 1.13856 3.75943 0.570907 5.12987C0.00324966 6.50032 -0.145275 8.00832 0.144114 9.46318C0.433503 10.918 1.14781 12.2544 2.1967 13.3033C3.2456 14.3522 4.58197 15.0665 6.03682 15.3559C7.49168 15.6453 8.99968 15.4968 10.3701 14.9291C11.7406 14.3614 12.9119 13.4001 13.736 12.1668C14.5601 10.9334 15 9.48336 15 8C14.9977 6.0116 14.2067 4.1053 12.8007 2.69929C11.3947 1.29328 9.4884 0.502346 7.5 0.5ZM10.0275 10.5275C9.89964 10.6553 9.72625 10.7271 9.54545 10.7271C9.36466 10.7271 9.19127 10.6553 9.06341 10.5275L7.01796 8.48204C6.89008 8.35421 6.81822 8.18081 6.81818 8V3.90909C6.81818 3.72826 6.89002 3.55484 7.01788 3.42697C7.14575 3.29911 7.31917 3.22727 7.5 3.22727C7.68083 3.22727 7.85425 3.29911 7.98212 3.42697C8.10999 3.55484 8.18182 3.72826 8.18182 3.90909V7.71773L10.0275 9.56341C10.1553 9.69127 10.2271 9.86466 10.2271 10.0455C10.2271 10.2262 10.1553 10.3996 10.0275 10.5275Z" fill="#939DA7"/>
</g>
</svg>
