<?xml version="1.0" encoding="utf-8"?>
<!-- Generator: Adobe Illustrator 21.1.0, SVG Export Plug-In . SVG Version: 6.00 Build 0)  -->
<svg version="1.1" id="Layer_1" xmlns="http://www.w3.org/2000/svg" xmlns:xlink="http://www.w3.org/1999/xlink" x="0px" y="0px"
	 viewBox="0 0 708.4 119.5" style="enable-background:new 0 0 708.4 119.5;" xml:space="preserve">
<style type="text/css">
	.st0{fill:#002B49;}
	.st1{fill:#00CCCC;}
</style>
<title>topresume</title>
<g>
	<path class="st0" d="M40.4,28v69.2H17.6V28H0V8h57.9v20H40.4z"/>
	<path class="st0" d="M82.7,99.3c-20.5,0-36-15.1-36-35.6s15.5-35.6,36-35.6s36,15.1,36,35.6S103.2,99.3,82.7,99.3z M82.7,46.8
		c-9.3,0-16,7.8-16,16.9s6.7,16.9,16,16.9s16-7.8,16-16.9S92,46.8,82.7,46.8z"/>
	<path class="st0" d="M162.2,99.5c-8,0-14.7-2.4-20.1-8.3v28.3h-20V30.3h18.8v7.4h0.1h0.2c5.2-6.5,12.7-9.6,20.9-9.6
		c20.7,0,32.7,17,32.7,36.4C194.8,83.1,181.7,99.5,162.2,99.5z M158,46.7c-9.6,0-16.8,7.6-16.8,17.1c0,9.4,7.2,17,16.8,17
		c9.5,0,16.8-7.6,16.8-17C174.8,54.3,167.6,46.7,158,46.7z"/>
	<path class="st1" d="M199.3,97.2V8h22.8v89.2H199.3z"/>
	<path class="st1" d="M271.3,97.2V60.7c0-7.5-1.4-13.9-10.5-13.9c-9.3,0-11.4,6-11.4,14v36.4h-20V30.3H248v7.1h0.2
		c4.2-6.9,10.1-9.4,18.2-9.4c5.7,0,12.8,2.2,17.1,5.8c6.4,5.3,7.7,13.7,7.7,21.6v41.8H271.3z"/>
	<path class="st1" d="M323.8,45.5v51.7h-20V45.5H294V30.3h9.9V8h20v22.3h9.6v15.2H323.8z"/>
	<path class="st1" d="M401,69.8h-50.1c1.2,8,7.8,12.7,15.7,12.7c5.4,0,8.9-2.2,12.2-6.3h20.5c-5.8,13.4-17.6,23.1-32.7,23.1
		c-19.5,0-35.4-15.9-35.4-35.4c0-19.4,15.4-35.9,35.1-35.9c20.5,0,35.3,16.4,35.3,36.5C401.5,66.3,401.3,68,401,69.8z M366.3,44.9
		c-7.2,0-13.6,4.2-15.2,11.4h30.4C379.9,49.1,373.5,44.9,366.3,44.9z"/>
	<path class="st1" d="M426.8,60.4v36.8h-20V30.3h18.8v7.1h0.2c3.5-6.9,9-9.4,16.8-9.4v20.1C433.8,48.4,426.8,50.1,426.8,60.4z"/>
	<path class="st1" d="M487.8,97.2h-19.2l-24-66.9h20.7L478.1,72h0.2l12.8-41.7h20.7L487.8,97.2z"/>
	<path class="st1" d="M515.6,97.2V30.3h20v66.9H515.6z M537.2,11.6C537.2,5.2,532,0,525.5,0s-11.6,5.2-11.6,11.6s5.2,11.6,11.6,11.6
		S537.2,18.1,537.2,11.6z"/>
	<path class="st1" d="M610.6,69.8h-50.1c1.2,8,7.8,12.7,15.7,12.7c5.4,0,8.9-2.2,12.2-6.3h20.5c-5.8,13.4-17.6,23.1-32.7,23.1
		c-19.5,0-35.4-15.9-35.4-35.4c0-19.4,15.4-35.9,35.1-35.9c20.5,0,35.3,16.4,35.3,36.5C611.1,66.3,610.9,68,610.6,69.8z M575.9,44.9
		c-7.2,0-13.6,4.2-15.2,11.4H591C589.5,49.1,583.1,44.9,575.9,44.9z"/>
	<path class="st1" d="M687.9,97.2h-18.6l-11.2-43.3h-0.2l-11.2,43.3h-18.6l-20.5-66.9h20.7l10,41.6h0.2l11-41.6h16.9l11.1,41.6h0.2
		l10-41.6h20.6L687.9,97.2z"/>
</g>
</svg>
