<svg width="680" height="164" viewBox="0 0 680 164" fill="none" xmlns="http://www.w3.org/2000/svg">
<path d="M138 0H15C6.71573 0 0 5.69897 0 12.729C0 19.759 6.71573 25.458 15 25.458H138C146.284 25.458 153 19.759 153 12.729C153 5.69897 146.284 0 138 0Z" fill="#FFB703"/>
<path d="M192 0H178C169.716 0 163 5.69897 163 12.729C163 19.759 169.716 25.458 178 25.458H192C200.284 25.458 207 19.759 207 12.729C207 5.69897 200.284 0 192 0Z" fill="#FFB703"/>
<path d="M97 46H15C6.71573 46 0 51.699 0 58.729C0 65.759 6.71573 71.458 15 71.458H97C105.284 71.458 112 65.759 112 58.729C112 51.699 105.284 46 97 46Z" fill="#FFB703"/>
<path d="M169 46H137C128.716 46 122 51.699 122 58.729C122 65.759 128.716 71.458 137 71.458H169C177.284 71.458 184 65.759 184 58.729C184 51.699 177.284 46 169 46Z" fill="#FFB703"/>
<path d="M160 92H15C6.71573 92 0 97.699 0 104.729C0 111.759 6.71573 117.458 15 117.458H160C168.284 117.458 175 111.759 175 104.729C175 97.699 168.284 92 160 92Z" fill="#FFB703"/>
<path d="M214 92H200C191.716 92 185 97.699 185 104.729C185 111.759 191.716 117.458 200 117.458H214C222.284 117.458 229 111.759 229 104.729C229 97.699 222.284 92 214 92Z" fill="#FFB703"/>
<path d="M116 138H15C6.71573 138 0 143.699 0 150.729C0 157.759 6.71573 163.458 15 163.458H116C124.284 163.458 131 157.759 131 150.729C131 143.699 124.284 138 116 138Z" fill="#FFB703"/>
<path d="M188 138H156C147.716 138 141 143.699 141 150.729C141 157.759 147.716 163.458 156 163.458H188C196.284 163.458 203 157.759 203 150.729C203 143.699 196.284 138 188 138Z" fill="#FFB703"/>
<path d="M332.544 129.329L351.448 69.4892L370.352 129.329H388.304L421.896 34.1292H398.776L378.92 97.3692L360.016 34.1292H342.88L323.976 97.3692L304.12 34.1292H281L314.592 129.329H332.544ZM485.26 93.1532C485.26 74.6572 471.388 62.0092 450.988 62.0092C429.636 62.0092 415.628 75.0652 415.628 96.5532C415.628 118.449 429.364 131.097 451.668 131.097C469.076 131.097 482.268 122.529 484.308 109.609H463.908C462.14 113.689 458.06 115.457 451.668 115.457C442.42 115.457 436.708 110.833 436.3 102.265H484.716C485.124 98.5932 485.26 96.5532 485.26 93.1532ZM436.3 89.3452C436.436 81.3212 441.876 76.0172 450.852 76.0172C459.692 76.0172 464.588 80.6412 464.724 89.3452H436.3ZM543.404 132.049C571.284 132.049 589.372 117.225 591.956 94.7852H568.563C566.116 105.529 557.14 112.329 543.54 112.329C525.588 112.329 515.252 100.361 515.252 81.7292C515.252 63.0972 525.588 51.1292 543.54 51.1292C557.14 51.1292 566.116 57.9292 568.563 68.6732H591.956C589.372 46.2332 571.284 31.4092 543.404 31.4092C512.124 31.4092 492.268 52.4892 492.268 81.7292C492.268 110.969 512.124 132.049 543.404 132.049ZM604.89 34.1292V129.329H626.922V102.945H645.418C665.138 102.945 679.554 88.5292 679.554 68.5372C679.554 48.5452 665.274 34.1292 645.418 34.1292H604.89ZM626.922 84.9932V52.0812H642.018C650.858 52.0812 657.25 59.0172 657.25 68.5372C657.25 78.0572 650.858 84.9932 642.018 84.9932H626.922Z" fill="#18181B"/>
</svg>
