<svg width="680" height="164" viewBox="0 0 680 164" fill="none" xmlns="http://www.w3.org/2000/svg">
<path d="M138 0H15C6.71573 0 0 5.69897 0 12.729C0 19.759 6.71573 25.458 15 25.458H138C146.284 25.458 153 19.759 153 12.729C153 5.69897 146.284 0 138 0Z" fill="#FFB703"/>
<path d="M192 0H178C169.716 0 163 5.69897 163 12.729C163 19.759 169.716 25.458 178 25.458H192C200.284 25.458 207 19.759 207 12.729C207 5.69897 200.284 0 192 0Z" fill="#FFB703"/>
<path d="M97 46H15C6.71573 46 0 51.699 0 58.729C0 65.759 6.71573 71.458 15 71.458H97C105.284 71.458 112 65.759 112 58.729C112 51.699 105.284 46 97 46Z" fill="#FFB703"/>
<path d="M169 46H137C128.716 46 122 51.699 122 58.729C122 65.759 128.716 71.458 137 71.458H169C177.284 71.458 184 65.759 184 58.729C184 51.699 177.284 46 169 46Z" fill="#FFB703"/>
<path d="M160 92H15C6.71573 92 0 97.699 0 104.729C0 111.759 6.71573 117.458 15 117.458H160C168.284 117.458 175 111.759 175 104.729C175 97.699 168.284 92 160 92Z" fill="#FFB703"/>
<path d="M214 92H200C191.716 92 185 97.699 185 104.729C185 111.759 191.716 117.458 200 117.458H214C222.284 117.458 229 111.759 229 104.729C229 97.699 222.284 92 214 92Z" fill="#FFB703"/>
<path d="M116 138H15C6.71573 138 0 143.699 0 150.729C0 157.759 6.71573 163.458 15 163.458H116C124.284 163.458 131 157.759 131 150.729C131 143.699 124.284 138 116 138Z" fill="#FFB703"/>
<path d="M188 138H156C147.716 138 141 143.699 141 150.729C141 157.759 147.716 163.458 156 163.458H188C196.284 163.458 203 157.759 203 150.729C203 143.699 196.284 138 188 138Z" fill="#FFB703"/>
<path d="M332.398 129.329L351.302 69.4892L370.206 129.329H388.158L421.751 34.1292H398.63L378.774 97.3692L359.87 34.1292H342.734L323.83 97.3692L303.974 34.1292H280.854L314.446 129.329H332.398ZM485.115 93.1532C485.115 74.6572 471.242 62.0092 450.842 62.0092C429.49 62.0092 415.482 75.0652 415.482 96.5532C415.482 118.449 429.218 131.097 451.522 131.097C468.93 131.097 482.122 122.529 484.162 109.609H463.762C461.994 113.689 457.914 115.457 451.522 115.457C442.274 115.457 436.562 110.833 436.154 102.265H484.57C484.979 98.5932 485.115 96.5532 485.115 93.1532ZM436.154 89.3452C436.29 81.3212 441.73 76.0172 450.706 76.0172C459.546 76.0172 464.442 80.6412 464.578 89.3452H436.154ZM543.258 132.049C571.138 132.049 589.226 117.225 591.81 94.7852H568.417C565.97 105.529 556.994 112.329 543.394 112.329C525.442 112.329 515.106 100.361 515.106 81.7292C515.106 63.0972 525.442 51.1292 543.394 51.1292C556.994 51.1292 565.97 57.9292 568.417 68.6732H591.81C589.226 46.2332 571.138 31.4092 543.258 31.4092C511.978 31.4092 492.122 52.4892 492.122 81.7292C492.122 110.969 511.978 132.049 543.258 132.049ZM604.744 34.1292V129.329H626.776V102.945H645.272C664.992 102.945 679.408 88.5292 679.408 68.5372C679.408 48.5452 665.128 34.1292 645.272 34.1292H604.744ZM626.776 84.9932V52.0812H641.872C650.712 52.0812 657.104 59.0172 657.104 68.5372C657.104 78.0572 650.712 84.9932 641.872 84.9932H626.776Z" fill="white"/>
</svg>
