<svg width="250" height="137" viewBox="0 0 250 137" fill="none" xmlns="http://www.w3.org/2000/svg">
<path d="M249.848 20.4303C249.823 20.3962 249.784 20.3652 249.748 20.3321C248.021 18.6865 237.549 19.3516 234.766 19.5601C234.353 19.5911 234.01 19.8778 233.826 20.2491C233.813 20.2762 233.799 20.3038 233.784 20.3321C233.321 21.2347 232.243 22.7339 230.044 23.2911C226.811 24.1075 180.74 24.9239 179.528 21.6555C179.324 21.103 178.96 20.6756 178.51 20.3321C176.718 18.9631 173.439 19.0746 172.274 19.1643C172.002 19.1852 171.757 19.3277 171.589 19.5419C171.434 19.7392 171.215 20.0124 170.946 20.3321C169.689 21.8313 167.344 24.3578 165.383 24.9239C163.194 25.5569 162.703 22.7645 162.965 20.3321C163.041 19.6227 163.18 18.9414 163.362 18.3874C163.928 16.6706 158.545 10.746 154.02 7.76991C152.087 6.49924 150.307 5.76177 149.218 6.12892C145.78 7.28771 128.617 0.778965 126.75 0.0634148C126.634 0.0192311 126.521 0 126.398 0H60.3277H9.89031C9.37459 0 8.94278 0.391202 8.88479 0.903648C8.7761 1.86403 8.57852 3.43983 8.31028 4.88098C8.27063 5.09155 8.23004 5.2977 8.18757 5.50069C7.98837 6.45441 7.75794 7.29605 7.49847 7.76991C7.32987 8.07961 7.14971 8.23525 6.96081 8.17084C6.78721 8.11276 6.53398 7.9647 6.23424 7.76991C4.43859 6.60468 0.783275 3.56011 0.0894929 5.31064C-0.13188 5.86974 0.0785648 6.74169 0.488839 7.76991C1.58009 10.5007 4.13073 14.379 4.13073 16.7521C4.13073 17.2743 4.13073 18.5468 4.13073 20.3321C4.13073 22.3693 4.13073 25.0735 4.13073 28.1029C4.13073 32.003 4.13073 36.4354 4.13073 40.6645C4.13073 43.4104 4.13073 46.067 4.13073 48.4353C4.13073 52.6713 4.13073 55.9833 4.13073 57.2057C4.13073 58.8006 5.15017 59.9333 6.42814 60.9969C8.74959 62.9312 11.9266 64.6419 11.4048 68.5003C11.3926 68.59 11.3908 68.6784 11.3833 68.7677C11.0033 73.3207 16.5264 78.0909 20.3575 81.3293C21.4968 82.2925 22.4875 83.1212 23.1254 83.7661C24.3038 84.9579 25.9727 87.0705 27.694 89.0998C30.1066 91.9455 32.6223 94.6289 34.037 94.3915C36.4618 93.9827 40.9077 92.3474 43.7366 95.6174C46.097 98.3459 56.8978 101.07 62.2873 101.662H65.3909C68.4607 101.246 76.4614 100.125 81.1452 101.662C82.8687 102.228 84.1439 103.151 84.5545 104.606C85.0316 106.294 85.8996 107.941 86.8803 109.433C88.447 111.812 90.3097 113.782 91.3733 114.828C91.8146 115.262 92.5279 115.158 92.8454 114.627C93.5391 113.467 94.6751 111.518 95.4661 109.918C95.5588 109.73 95.6806 109.569 95.8214 109.433C96.5021 108.768 97.7076 108.703 99.078 109.433C101.149 110.536 103.593 113.461 105.166 118.908C105.482 120.006 105.914 121.031 106.423 121.994C108.202 125.363 110.981 127.938 113.541 129.764C115.448 131.124 117.231 132.07 118.386 132.622C119.019 132.924 119.716 132.456 119.721 131.755C119.725 131.205 119.731 130.526 119.741 129.764C119.77 127.494 119.832 124.493 119.964 121.994C120.007 121.169 120.058 120.396 120.118 119.725C120.522 115.231 133.859 111.143 136.283 110.734C138.709 110.326 154.874 117.682 154.874 115.231C154.874 113.172 157.443 111.398 160.418 109.432C160.986 109.057 161.567 108.676 162.15 108.283C163.435 107.415 165.024 108.185 166.557 109.432C169.365 111.711 171.991 115.588 172.252 114.005C172.655 111.551 180.335 112.779 181.143 115.638C181.619 117.325 182.235 119.723 182.579 121.993C182.818 123.571 182.925 125.091 182.761 126.263C182.648 127.067 183.171 128.355 184.012 129.763C186.162 133.368 190.376 137.768 191.248 136.886C191.781 136.348 192.392 133.276 192.635 129.763C192.817 127.128 192.788 124.246 192.367 121.993C192.072 120.423 191.587 119.158 190.844 118.499C189.406 117.227 188.29 113.451 187.775 109.432C187.429 106.717 187.356 103.898 187.648 101.66C187.895 99.7615 188.403 98.2844 189.228 97.659C190.498 96.6958 195.008 93.1505 199.748 89.0995C202.747 86.5357 205.841 83.7702 208.262 81.3293C211.759 77.8048 213.859 74.9547 212.263 74.3679C209.651 73.4066 209.277 71.5901 209.573 68.7677C209.78 66.7902 210.313 64.3234 210.646 61.293C210.658 61.1876 210.673 61.0963 210.686 60.9969C211.596 54.1924 216.333 62.3834 218.328 53.119C218.746 51.1696 219.832 49.6463 221.26 48.4353C226.712 43.8085 237.223 43.7914 235.3 42.4961C234.708 42.0949 234.285 41.4474 234.031 40.6645C233.246 38.2519 234.073 34.5394 236.513 32.6887C237.764 31.7413 240.28 30.0006 242.804 28.1029C246.811 25.0903 250.84 21.6836 249.848 20.4303Z" fill="white"/>
<rect x="116" y="53" width="10" height="6" rx="1" fill="#99D5D0"/>
<path d="M142.5 61V39C142.5 37.8954 141.605 37 140.5 37H97.5C96.3954 37 95.5 37.8954 95.5 39L95.5 70.5C95.5 71.6046 96.3954 72.5 97.5 72.5H126" stroke="#333333"/>
<path d="M114 54H105.5C99.9772 54 95.5 49.5228 95.5 44V39C95.5 37.8954 96.3954 37 97.5 37L140.5 37C141.605 37 142.5 37.8954 142.5 39V44C142.5 49.5228 138.023 54 132.5 54H124" stroke="#333333"/>
<path d="M107 37L107 31.5C107 29.8431 108.343 28.5 110 28.5H128C129.657 28.5 131 29.8431 131 31.5V37" stroke="#333333"/>
<rect x="114" y="51" width="10" height="6" rx="1" stroke="#333333"/>
<circle cx="141" cy="75" r="12" fill="#99D5D0"/>
<circle cx="138" cy="72" r="12" stroke="#333333"/>
<path d="M146.5 80.5L154.5 87.5" stroke="#333333" stroke-linecap="round"/>
</svg>
